<svg xmlns="http://www.w3.org/2000/svg" xmlns:xlink="http://www.w3.org/1999/xlink" width="420" height="320" version="1.0"><defs><g id="dot"><circle cx="0" cy="0" r=".4" fill="#000"/><circle cx="0" cy="0" r=".2" fill="#fff"/></g><g id="dots5v"><rect width=".3" height="4" x="-.15" y="-.15" fill="#000"/><use xlink:href="#dot"/><use transform="translate(0 1)" xlink:href="#dot"/><use transform="translate(0 2)" xlink:href="#dot"/><use transform="translate(0 3)" xlink:href="#dot"/><use transform="translate(0 4)" xlink:href="#dot"/></g><g id="dots5x5"><use xlink:href="#dots5v"/><use transform="translate(1 0)" xlink:href="#dots5v"/><use transform="translate(2 0)" xlink:href="#dots5v"/><use transform="translate(3 0)" xlink:href="#dots5v"/><use transform="translate(4 0)" xlink:href="#dots5v"/></g><g id="dots10"><use xlink:href="#dot"/><use transform="translate(1 0)" xlink:href="#dot"/><use transform="translate(2 0)" xlink:href="#dot"/><use transform="translate(3 0)" xlink:href="#dot"/><use transform="translate(4 0)" xlink:href="#dot"/><use transform="translate(5 0)" xlink:href="#dot"/><use transform="translate(6 0)" xlink:href="#dot"/><use transform="translate(7 0)" xlink:href="#dot"/><use transform="translate(8 0)" xlink:href="#dot"/><use transform="translate(9 0)" xlink:href="#dot"/></g><g id="dots10h"><rect width="9" height=".3" x="-.15" y="-.15" fill="#000"/><use xlink:href="#dots10"/></g><g id="dots20h"><rect width="19" height=".3" x="-.15" y="-.15" fill="#000"/><use xlink:href="#dots10"/><use transform="translate(10 0)" xlink:href="#dots10"/></g></defs><rect width="420" height="320" fill="#fff"/><g transform="scale(20) translate(1 1)"><use transform="translate(0 0)" xlink:href="#dots20h"/><use transform="translate(0 1)" xlink:href="#dots20h"/><g id="dots5x20"><use transform="translate(0 2)" xlink:href="#dots5x5"/><use transform="translate(5 2)" xlink:href="#dots5x5"/><use transform="translate(10 2)" xlink:href="#dots5x5"/><use transform="translate(15 2)" xlink:href="#dots5x5"/></g><use transform="translate(0 7)" xlink:href="#dots10h"/><use transform="translate(10 7)" xlink:href="#dots10h"/><use transform="translate(0 6)" xlink:href="#dots5x20"/><use transform="translate(0 13)" xlink:href="#dots20h"/><use transform="translate(0 14)" xlink:href="#dots20h"/></g></svg>